<svg width="30" height="30" viewBox="0 0 30 30" fill="none" xmlns="http://www.w3.org/2000/svg">
<path d="M14.9255 30C15.9526 30.0012 16.9545 29.7129 17.792 29.1752C18.6296 28.6376 19.2611 27.8773 19.5989 27H10.2522C10.5899 27.8773 11.2215 28.6376 12.059 29.1752C12.8966 29.7129 13.8985 30.0012 14.9255 30ZM26.5343 18.879V12C26.5343 7.1745 22.9107 3.1095 18.0018 1.887C17.5159 0.78 16.3285 0 14.9255 0C13.5225 0 12.3351 0.78 11.8492 1.887C6.94037 3.111 3.31678 7.1745 3.31678 12V18.879L0.48591 21.4395C0.331609 21.5786 0.20924 21.7438 0.125848 21.9259C0.042455 22.1079 -0.000314181 22.303 1.73745e-06 22.5V24C1.73745e-06 24.3978 0.174724 24.7794 0.485733 25.0607C0.796742 25.342 1.21856 25.5 1.65839 25.5H28.1926C28.6325 25.5 29.0543 25.342 29.3653 25.0607C29.6763 24.7794 29.851 24.3978 29.851 24V22.5C29.8514 22.303 29.8086 22.1079 29.7252 21.9259C29.6418 21.7438 29.5194 21.5786 29.3651 21.4395L26.5343 18.879Z" fill="#B8B9BB"/>
</svg>
