<svg width="23" height="23" viewBox="0 0 23 23" fill="none" xmlns="http://www.w3.org/2000/svg">
<path d="M1.25 12.5H8.75C9.4375 12.5 10 11.9375 10 11.25V1.25C10 0.5625 9.4375 0 8.75 0H1.25C0.5625 0 0 0.5625 0 1.25V11.25C0 11.9375 0.5625 12.5 1.25 12.5ZM1.25 22.5H8.75C9.4375 22.5 10 21.9375 10 21.25V16.25C10 15.5625 9.4375 15 8.75 15H1.25C0.5625 15 0 15.5625 0 16.25V21.25C0 21.9375 0.5625 22.5 1.25 22.5ZM13.75 22.5H21.25C21.9375 22.5 22.5 21.9375 22.5 21.25V11.25C22.5 10.5625 21.9375 10 21.25 10H13.75C13.0625 10 12.5 10.5625 12.5 11.25V21.25C12.5 21.9375 13.0625 22.5 13.75 22.5ZM12.5 1.25V6.25C12.5 6.9375 13.0625 7.5 13.75 7.5H21.25C21.9375 7.5 22.5 6.9375 22.5 6.25V1.25C22.5 0.5625 21.9375 0 21.25 0H13.75C13.0625 0 12.5 0.5625 12.5 1.25Z" fill="#7C20BF"/>
</svg>
