<svg width="275" height="158" viewBox="0 0 275 158" fill="none" xmlns="http://www.w3.org/2000/svg">
<rect width="275" height="158" rx="10" fill="#2A0B40"/>
<path d="M18.233 66V55.8182H24.3778V56.9119H19.4659V60.3523H24.0597V61.446H19.4659V64.9062H24.4574V66H18.233ZM29.7621 58.3636V59.358H25.8047V58.3636H29.7621ZM26.9581 56.5341H28.1314V63.8125C28.1314 64.1439 28.1795 64.3925 28.2756 64.5582C28.375 64.7206 28.5009 64.83 28.6534 64.8864C28.8092 64.9394 28.9732 64.9659 29.1456 64.9659C29.2749 64.9659 29.3809 64.9593 29.4638 64.946C29.5466 64.9295 29.6129 64.9162 29.6626 64.9062L29.9013 65.9602C29.8217 65.9901 29.7107 66.0199 29.5682 66.0497C29.4257 66.0829 29.245 66.0994 29.0263 66.0994C28.6948 66.0994 28.37 66.0282 28.0518 65.8857C27.737 65.7431 27.4751 65.526 27.2663 65.2344C27.0608 64.9427 26.9581 64.5748 26.9581 64.1307V56.5341ZM32.8643 61.4062V66H31.6911V55.8182H32.8643V59.5568H32.9638C33.1428 59.1624 33.4112 58.8492 33.7692 58.6172C34.1304 58.3819 34.611 58.2642 35.2109 58.2642C35.7313 58.2642 36.187 58.3686 36.5781 58.5774C36.9692 58.7829 37.2725 59.0994 37.4879 59.527C37.7067 59.9512 37.8161 60.4915 37.8161 61.1477V66H36.6428V61.2273C36.6428 60.6207 36.4853 60.1518 36.1705 59.8203C35.8589 59.4856 35.4264 59.3182 34.8729 59.3182C34.4884 59.3182 34.1437 59.3994 33.8388 59.5618C33.5372 59.7242 33.2985 59.9612 33.1229 60.2727C32.9505 60.5843 32.8643 60.9621 32.8643 61.4062ZM43.1642 66.1591C42.4284 66.1591 41.7937 65.9967 41.2601 65.6719C40.7298 65.3438 40.3205 64.8864 40.0321 64.2997C39.7471 63.7098 39.6046 63.0237 39.6046 62.2415C39.6046 61.4593 39.7471 60.7699 40.0321 60.1733C40.3205 59.5734 40.7215 59.1061 41.2353 58.7713C41.7523 58.4332 42.3555 58.2642 43.0449 58.2642C43.4426 58.2642 43.8354 58.3305 44.2232 58.4631C44.611 58.5956 44.964 58.8111 45.2821 59.1094C45.6003 59.4044 45.8539 59.7955 46.0428 60.2827C46.2317 60.7699 46.3262 61.3698 46.3262 62.0824V62.5795H40.4398V61.5653H45.133C45.133 61.1345 45.0468 60.75 44.8745 60.4119C44.7054 60.0739 44.4635 59.8071 44.1486 59.6115C43.8371 59.416 43.4692 59.3182 43.0449 59.3182C42.5776 59.3182 42.1732 59.4342 41.8319 59.6662C41.4938 59.8949 41.2336 60.1932 41.0513 60.5611C40.869 60.929 40.7779 61.3234 40.7779 61.7443V62.4205C40.7779 62.9972 40.8773 63.486 41.0762 63.8871C41.2783 64.2848 41.5584 64.5881 41.9164 64.7969C42.2743 65.0024 42.6903 65.1051 43.1642 65.1051C43.4725 65.1051 43.7509 65.062 43.9995 64.9759C44.2514 64.8864 44.4685 64.7538 44.6507 64.5781C44.833 64.3991 44.9739 64.1771 45.0733 63.9119L46.2069 64.2301C46.0875 64.6146 45.887 64.9527 45.6053 65.2443C45.3236 65.5327 44.9756 65.758 44.5613 65.9205C44.147 66.0795 43.6813 66.1591 43.1642 66.1591ZM48.111 66V58.3636H49.2445V59.517H49.324C49.4632 59.1392 49.7151 58.8326 50.0797 58.5973C50.4443 58.362 50.8553 58.2443 51.3127 58.2443C51.3989 58.2443 51.5066 58.246 51.6358 58.2493C51.7651 58.2526 51.8629 58.2576 51.9292 58.2642V59.4574C51.8894 59.4474 51.7982 59.4325 51.6557 59.4126C51.5165 59.3894 51.369 59.3778 51.2132 59.3778C50.842 59.3778 50.5106 59.4557 50.2189 59.6115C49.9306 59.764 49.7019 59.9761 49.5328 60.2479C49.3671 60.5163 49.2843 60.8229 49.2843 61.1676V66H48.111ZM56.2892 66.1591C55.5534 66.1591 54.9187 65.9967 54.3851 65.6719C53.8548 65.3438 53.4455 64.8864 53.1571 64.2997C52.8721 63.7098 52.7296 63.0237 52.7296 62.2415C52.7296 61.4593 52.8721 60.7699 53.1571 60.1733C53.4455 59.5734 53.8465 59.1061 54.3603 58.7713C54.8773 58.4332 55.4805 58.2642 56.1699 58.2642C56.5676 58.2642 56.9604 58.3305 57.3482 58.4631C57.736 58.5956 58.089 58.8111 58.4071 59.1094C58.7253 59.4044 58.9789 59.7955 59.1678 60.2827C59.3567 60.7699 59.4512 61.3698 59.4512 62.0824V62.5795H53.5648V61.5653H58.258C58.258 61.1345 58.1718 60.75 57.9995 60.4119C57.8304 60.0739 57.5885 59.8071 57.2736 59.6115C56.9621 59.416 56.5942 59.3182 56.1699 59.3182C55.7026 59.3182 55.2982 59.4342 54.9569 59.6662C54.6188 59.8949 54.3586 60.1932 54.1763 60.5611C53.994 60.929 53.9029 61.3234 53.9029 61.7443V62.4205C53.9029 62.9972 54.0023 63.486 54.2012 63.8871C54.4033 64.2848 54.6834 64.5881 55.0414 64.7969C55.3993 65.0024 55.8153 65.1051 56.2892 65.1051C56.5975 65.1051 56.8759 65.062 57.1245 64.9759C57.3764 64.8864 57.5935 64.7538 57.7757 64.5781C57.958 64.3991 58.0989 64.1771 58.1983 63.9119L59.3319 64.2301C59.2125 64.6146 59.012 64.9527 58.7303 65.2443C58.4486 65.5327 58.1006 65.758 57.6863 65.9205C57.272 66.0795 56.8063 66.1591 56.2892 66.1591ZM66.0485 62.8778V58.3636H67.2218V66H66.0485V64.7074H65.9689C65.79 65.0952 65.5115 65.425 65.1337 65.6967C64.7559 65.9652 64.2786 66.0994 63.7019 66.0994C63.2246 66.0994 62.8004 65.995 62.4292 65.7862C62.0579 65.5741 61.7663 65.2559 61.5542 64.8317C61.342 64.4041 61.236 63.8655 61.236 63.2159V58.3636H62.4093V63.1364C62.4093 63.6932 62.565 64.1373 62.8766 64.4688C63.1915 64.8002 63.5925 64.9659 64.0797 64.9659C64.3714 64.9659 64.668 64.8913 64.9696 64.7422C65.2746 64.593 65.5298 64.3643 65.7353 64.0561C65.9441 63.7479 66.0485 63.3551 66.0485 62.8778ZM69.3707 66V58.3636H70.5043V59.5568H70.6037C70.7628 59.1491 71.0196 58.8326 71.3743 58.6072C71.7289 58.3786 72.1548 58.2642 72.652 58.2642C73.1558 58.2642 73.575 58.3786 73.9098 58.6072C74.2479 58.8326 74.5114 59.1491 74.7003 59.5568H74.7798C74.9754 59.1624 75.2687 58.8492 75.6598 58.6172C76.0509 58.3819 76.5199 58.2642 77.0668 58.2642C77.7495 58.2642 78.308 58.478 78.7422 58.9055C79.1764 59.3298 79.3935 59.991 79.3935 60.8892V66H78.2202V60.8892C78.2202 60.3258 78.0661 59.9231 77.7578 59.6811C77.4496 59.4392 77.0866 59.3182 76.669 59.3182C76.1321 59.3182 75.7161 59.4806 75.4212 59.8054C75.1262 60.1269 74.9787 60.5346 74.9787 61.0284V66H73.7855V60.7699C73.7855 60.3357 73.6446 59.986 73.3629 59.7209C73.0812 59.4524 72.7183 59.3182 72.2741 59.3182C71.9692 59.3182 71.6842 59.3994 71.419 59.5618C71.1572 59.7242 70.9451 59.9496 70.7827 60.2379C70.6236 60.523 70.544 60.8527 70.544 61.2273V66H69.3707Z" fill="white"/>
<path d="M21.0568 97.2727V84.5455H21.8722V97.2727H21.0568ZM23.8011 88.3636C23.7415 87.8598 23.4995 87.4688 23.0753 87.1903C22.651 86.9119 22.1307 86.7727 21.5142 86.7727C21.0634 86.7727 20.669 86.8456 20.331 86.9915C19.9962 87.1373 19.7344 87.3378 19.5455 87.593C19.3598 87.8482 19.267 88.1383 19.267 88.4631C19.267 88.7348 19.3317 88.9685 19.4609 89.1641C19.5935 89.3563 19.7625 89.517 19.968 89.6463C20.1735 89.7723 20.389 89.8767 20.6143 89.9595C20.8397 90.0391 21.0469 90.1037 21.2358 90.1534L22.2699 90.4318C22.535 90.5014 22.83 90.5975 23.1548 90.7202C23.483 90.8428 23.7962 91.0102 24.0945 91.2223C24.3961 91.4311 24.6446 91.6996 24.8402 92.0277C25.0357 92.3558 25.1335 92.7585 25.1335 93.2358C25.1335 93.786 24.9893 94.2831 24.701 94.7273C24.416 95.1714 23.9983 95.5244 23.4482 95.7862C22.9013 96.0481 22.2367 96.179 21.4545 96.179C20.7254 96.179 20.094 96.0613 19.5604 95.826C19.0301 95.5907 18.6125 95.2625 18.3075 94.8416C18.0059 94.4207 17.8352 93.9318 17.7955 93.375H19.0682C19.1013 93.7595 19.2306 94.0777 19.456 94.3295C19.6847 94.5781 19.973 94.7637 20.321 94.8864C20.6723 95.0057 21.0502 95.0653 21.4545 95.0653C21.9252 95.0653 22.3478 94.9891 22.7223 94.8366C23.0968 94.6809 23.3935 94.4654 23.6122 94.1903C23.831 93.9119 23.9403 93.5871 23.9403 93.2159C23.9403 92.8778 23.8459 92.6027 23.657 92.3906C23.468 92.1785 23.2195 92.0062 22.9112 91.8736C22.603 91.741 22.2699 91.625 21.9119 91.5256L20.6591 91.1676C19.8636 90.9389 19.2339 90.6125 18.7699 90.1882C18.3059 89.764 18.0739 89.2088 18.0739 88.5227C18.0739 87.9527 18.228 87.4555 18.5362 87.0312C18.8478 86.6037 19.2654 86.2723 19.7891 86.0369C20.3161 85.7983 20.9044 85.679 21.554 85.679C22.2102 85.679 22.7936 85.7966 23.304 86.032C23.8144 86.264 24.2188 86.5821 24.517 86.9865C24.8187 87.3909 24.9777 87.8499 24.9943 88.3636H23.8011ZM30.5613 85.8182V96H29.3283V87.1108H29.2686L26.7828 88.7614V87.5085L29.3283 85.8182H30.5613ZM36.8105 96.1392C36.0615 96.1392 35.4235 95.9354 34.8965 95.5277C34.3695 95.1167 33.9668 94.5218 33.6884 93.7429C33.41 92.9607 33.2708 92.0161 33.2708 90.9091C33.2708 89.8087 33.41 88.8691 33.6884 88.0902C33.9701 87.308 34.3745 86.7114 34.9015 86.3004C35.4318 85.8861 36.0681 85.679 36.8105 85.679C37.553 85.679 38.1877 85.8861 38.7147 86.3004C39.245 86.7114 39.6493 87.308 39.9277 88.0902C40.2095 88.8691 40.3503 89.8087 40.3503 90.9091C40.3503 92.0161 40.2111 92.9607 39.9327 93.7429C39.6543 94.5218 39.2516 95.1167 38.7246 95.5277C38.1976 95.9354 37.5596 96.1392 36.8105 96.1392ZM36.8105 95.0455C37.553 95.0455 38.1297 94.6875 38.5407 93.9716C38.9516 93.2557 39.1571 92.2348 39.1571 90.9091C39.1571 90.0275 39.0627 89.2768 38.8738 88.657C38.6882 88.0372 38.4197 87.5649 38.0684 87.2401C37.7203 86.9152 37.3011 86.7528 36.8105 86.7528C36.0748 86.7528 35.4997 87.1158 35.0854 87.8416C34.6711 88.5642 34.464 89.5866 34.464 90.9091C34.464 91.7907 34.5568 92.5398 34.7424 93.1562C34.928 93.7727 35.1948 94.2417 35.5428 94.5632C35.8941 94.8847 36.3167 95.0455 36.8105 95.0455ZM43.6539 94.608L43.5744 95.1449C43.5181 95.5227 43.4319 95.9271 43.3159 96.358C43.2032 96.7888 43.0855 97.1948 42.9629 97.576C42.8403 97.9571 42.7392 98.2604 42.6596 98.4858H41.7647C41.8078 98.2737 41.8642 97.9936 41.9338 97.6456C42.0034 97.2976 42.073 96.9081 42.1426 96.4773C42.2155 96.0497 42.2752 95.6122 42.3216 95.1648L42.3812 94.608H43.6539ZM45.8079 96V95.1051L49.1687 91.4261C49.5631 90.9953 49.8879 90.6207 50.1431 90.3026C50.3983 89.9811 50.5872 89.6795 50.7099 89.3977C50.8358 89.1127 50.8988 88.8144 50.8988 88.5028C50.8988 88.1449 50.8126 87.835 50.6403 87.5732C50.4712 87.3113 50.2392 87.1091 49.9442 86.9666C49.6493 86.8241 49.3178 86.7528 48.9499 86.7528C48.5588 86.7528 48.2174 86.834 47.9258 86.9964C47.6374 87.1555 47.4137 87.3793 47.2546 87.6676C47.0988 87.956 47.021 88.294 47.021 88.6818H45.8477C45.8477 88.0852 45.9852 87.5616 46.2603 87.1108C46.5354 86.66 46.9099 86.3087 47.3839 86.0568C47.8612 85.8049 48.3964 85.679 48.9897 85.679C49.5863 85.679 50.1149 85.8049 50.5756 86.0568C51.0363 86.3087 51.3976 86.6484 51.6594 87.076C51.9213 87.5036 52.0522 87.9792 52.0522 88.5028C52.0522 88.8774 51.9843 89.2436 51.8484 89.6016C51.7158 89.9562 51.4838 90.3523 51.1523 90.7898C50.8242 91.224 50.3685 91.7543 49.7852 92.3807L47.4982 94.8267V94.9062H52.2312V96H45.8079ZM57.4663 96.1392C56.8829 96.1392 56.3576 96.0232 55.8903 95.7912C55.4229 95.5592 55.0484 95.241 54.7667 94.8366C54.485 94.4323 54.3308 93.9716 54.3043 93.4545H55.4975C55.5439 93.9152 55.7527 94.2964 56.1239 94.598C56.4985 94.8963 56.9459 95.0455 57.4663 95.0455C57.8839 95.0455 58.2551 94.9477 58.5799 94.7521C58.908 94.5566 59.1649 94.2881 59.3505 93.9467C59.5394 93.602 59.6339 93.2126 59.6339 92.7784C59.6339 92.3343 59.5361 91.9382 59.3406 91.5902C59.1483 91.2389 58.8832 90.9621 58.5451 90.7599C58.207 90.5578 57.8209 90.455 57.3867 90.4517C57.0752 90.4484 56.7553 90.4964 56.4272 90.5959C56.0991 90.692 55.829 90.8163 55.6168 90.9688L54.4634 90.8295L55.0799 85.8182H60.3697V86.9119H56.114L55.756 89.9148H55.8157C56.0245 89.7491 56.2863 89.6115 56.6012 89.5021C56.9161 89.3928 57.2442 89.3381 57.5856 89.3381C58.2087 89.3381 58.7638 89.4872 59.2511 89.7855C59.7416 90.0805 60.1261 90.4848 60.4045 90.9986C60.6862 91.5123 60.8271 92.099 60.8271 92.7585C60.8271 93.4081 60.6812 93.9882 60.3896 94.4986C60.1012 95.0057 59.7035 95.4067 59.1964 95.7017C58.6893 95.9934 58.1126 96.1392 57.4663 96.1392ZM63.1202 96L67.6742 86.9915V86.9119H62.4242V85.8182H68.9469V86.9716L64.4128 96H63.1202ZM69.9251 96.0795C69.6798 96.0795 69.4693 95.9917 69.2937 95.8161C69.118 95.6404 69.0302 95.4299 69.0302 95.1847C69.0302 94.9394 69.118 94.7289 69.2937 94.5533C69.4693 94.3776 69.6798 94.2898 69.9251 94.2898C70.1703 94.2898 70.3808 94.3776 70.5565 94.5533C70.7321 94.7289 70.82 94.9394 70.82 95.1847C70.82 95.3471 70.7785 95.4962 70.6957 95.6321C70.6161 95.768 70.5084 95.8774 70.3725 95.9602C70.2399 96.0398 70.0908 96.0795 69.9251 96.0795ZM75.8823 96.1392C75.2989 96.1392 74.7736 96.0232 74.3063 95.7912C73.839 95.5592 73.4644 95.241 73.1827 94.8366C72.901 94.4323 72.7469 93.9716 72.7203 93.4545H73.9135C73.9599 93.9152 74.1687 94.2964 74.54 94.598C74.9145 94.8963 75.3619 95.0455 75.8823 95.0455C76.2999 95.0455 76.6711 94.9477 76.9959 94.7521C77.324 94.5566 77.5809 94.2881 77.7665 93.9467C77.9554 93.602 78.0499 93.2126 78.0499 92.7784C78.0499 92.3343 77.9521 91.9382 77.7566 91.5902C77.5643 91.2389 77.2992 90.9621 76.9611 90.7599C76.623 90.5578 76.2369 90.455 75.8027 90.4517C75.4912 90.4484 75.1713 90.4964 74.8432 90.5959C74.5151 90.692 74.245 90.8163 74.0328 90.9688L72.8794 90.8295L73.4959 85.8182H78.7857V86.9119H74.53L74.1721 89.9148H74.2317C74.4405 89.7491 74.7024 89.6115 75.0172 89.5021C75.3321 89.3928 75.6602 89.3381 76.0016 89.3381C76.6247 89.3381 77.1799 89.4872 77.6671 89.7855C78.1576 90.0805 78.5421 90.4848 78.8205 90.9986C79.1022 91.5123 79.2431 92.099 79.2431 92.7585C79.2431 93.4081 79.0972 93.9882 78.8056 94.4986C78.5172 95.0057 78.1195 95.4067 77.6124 95.7017C77.1053 95.9934 76.5286 96.1392 75.8823 96.1392ZM81.5362 96L86.0902 86.9915V86.9119H80.8402V85.8182H87.3629V86.9716L82.8288 96H81.5362Z" fill="white"/>
<rect x="155" y="29" width="100" height="100" fill="#D9D9D9"/>
</svg>
