<svg width="25" height="25" viewBox="0 0 25 25" fill="none" xmlns="http://www.w3.org/2000/svg">
<path d="M12.1167 23.3386C18.2562 23.3386 23.2333 18.3615 23.2333 12.2219C23.2333 6.08233 18.2562 1.10522 12.1167 1.10522C5.9771 1.10522 1 6.08233 1 12.2219C1 18.3615 5.9771 23.3386 12.1167 23.3386Z" stroke="#292929" stroke-width="1.975" stroke-linecap="round" stroke-linejoin="round"/>
<path d="M19.8206 19.9135L4.62891 4.72184L4.81974 4.53101" stroke="#292929" stroke-width="1.975" stroke-linejoin="round"/>
<path d="M14.9833 8.61107C14.7129 7.55898 13.545 6.7694 12.145 6.7694C10.5446 6.7694 9.24707 7.80148 9.24707 9.07607C9.24707 10.3498 10.5075 11.664 12.1158 12.2207C13.7242 12.7765 15.0175 13.974 14.9846 15.3648C14.9537 16.639 13.6875 17.6719 12.0871 17.6719C10.6871 17.6719 9.51874 16.8806 9.24874 15.8286M12.1171 6.77148V4.5719M12.1171 19.8715V17.6719" stroke="#292929" stroke-width="2.63667" stroke-miterlimit="10" stroke-linecap="round" stroke-linejoin="round"/>
</svg>
