<svg width="23" height="26" viewBox="0 0 23 26" fill="none" xmlns="http://www.w3.org/2000/svg">
<path d="M3.75 25.3915H20C20.663 25.3915 21.2989 25.1281 21.7678 24.6592C22.2366 24.1904 22.5 23.5545 22.5 22.8915V2.89148C22.5 2.22844 22.2366 1.59255 21.7678 1.12371C21.2989 0.654871 20.663 0.391479 20 0.391479H2.5C1.83696 0.391479 1.20107 0.654871 0.732233 1.12371C0.263392 1.59255 0 2.22844 0 2.89148V22.8915C0 23.5545 0.263392 24.1904 0.732233 24.6592C1.20107 25.1281 1.83696 25.3915 2.5 25.3915H3.75ZM11.25 4.14023C13.3087 4.14023 15 5.82898 15 7.89023C15 9.95023 13.3087 11.6415 11.25 11.6415C9.19125 11.6415 7.5 9.95023 7.5 7.89023C7.5 5.82898 9.19125 4.14023 11.25 4.14023V4.14023ZM3.75 19.454C3.75 16.6802 7.13125 13.829 11.25 13.829C15.3688 13.829 18.75 16.6802 18.75 19.454V20.3915H3.75V19.454Z" fill="#292929"/>
</svg>
