<svg width="26" height="26" viewBox="0 0 26 26" fill="none" xmlns="http://www.w3.org/2000/svg">
<path d="M25.1413 11.4915L22.3496 10.6582C22.1566 9.98425 21.8912 9.33323 21.5579 8.71649L22.9246 6.15815C22.9759 6.06158 22.9947 5.95105 22.9782 5.84297C22.9616 5.73488 22.9107 5.635 22.8329 5.55815L20.8413 3.55815C20.7644 3.48038 20.6645 3.42945 20.5565 3.41294C20.4484 3.39643 20.3378 3.4152 20.2413 3.46649L17.6996 4.82482C17.0768 4.47537 16.4172 4.19589 15.7329 3.99148L14.8996 1.23315C14.8644 1.1315 14.7978 1.04365 14.7094 0.982253C14.6211 0.920856 14.5155 0.889075 14.4079 0.891485H11.5913C11.4831 0.891989 11.3778 0.927014 11.2909 0.991463C11.204 1.05591 11.1399 1.14642 11.1079 1.24982L10.2746 3.99982C9.58462 4.20313 8.91941 4.48263 8.29128 4.83315L5.79128 3.48315C5.69471 3.43187 5.58418 3.41309 5.47609 3.42961C5.36801 3.44612 5.26813 3.49704 5.19128 3.57482L3.16628 5.54982C3.0885 5.62667 3.03758 5.72655 3.02106 5.83464C3.00455 5.94272 3.02333 6.05325 3.07461 6.14982L4.42461 8.64982C4.07466 9.27531 3.79517 9.9377 3.59128 10.6248L0.832943 11.4582C0.729545 11.4901 0.639036 11.5542 0.574587 11.6411C0.510138 11.728 0.475113 11.8333 0.474609 11.9415V14.7582C0.475113 14.8664 0.510138 14.9716 0.574587 15.0585C0.639036 15.1455 0.729545 15.2096 0.832943 15.2415L3.60794 16.0748C3.81406 16.7505 4.09351 17.4016 4.44128 18.0165L3.07461 20.6332C3.02333 20.7297 3.00455 20.8402 3.02106 20.9483C3.03758 21.0564 3.0885 21.1563 3.16628 21.2332L5.15794 23.2248C5.23479 23.3026 5.33467 23.3535 5.44276 23.37C5.55085 23.3865 5.66137 23.3678 5.75794 23.3165L8.33294 21.9415C8.94208 22.2702 9.58462 22.5328 10.2496 22.7248L11.0829 25.5332C11.1149 25.6365 11.179 25.7271 11.2659 25.7915C11.3528 25.856 11.4581 25.891 11.5663 25.8915H14.3829C14.4912 25.891 14.5964 25.856 14.6833 25.7915C14.7702 25.7271 14.8343 25.6365 14.8663 25.5332L15.6996 22.7165C16.3589 22.5235 16.9958 22.2609 17.5996 21.9332L20.1913 23.3165C20.2878 23.3678 20.3984 23.3865 20.5065 23.37C20.6145 23.3535 20.7144 23.3026 20.7913 23.2248L22.7829 21.2332C22.8607 21.1563 22.9116 21.0564 22.9282 20.9483C22.9447 20.8402 22.9259 20.7297 22.8746 20.6332L21.4913 18.0498C21.8224 17.4437 22.0878 16.804 22.2829 16.1415L25.0913 15.3082C25.1947 15.2762 25.2852 15.2121 25.3496 15.1252C25.4141 15.0383 25.4491 14.933 25.4496 14.8248V11.9832C25.4545 11.8795 25.4276 11.7769 25.3725 11.689C25.3174 11.6011 25.2367 11.5322 25.1413 11.4915V11.4915ZM12.9996 17.9748C12.0931 17.9748 11.207 17.706 10.4532 17.2024C9.69952 16.6988 9.11206 15.9829 8.76516 15.1455C8.41826 14.308 8.32749 13.3864 8.50434 12.4973C8.68119 11.6082 9.11771 10.7916 9.7587 10.1506C10.3997 9.50959 11.2164 9.07307 12.1054 8.89622C12.9945 8.71937 13.9161 8.81014 14.7536 9.15704C15.5911 9.50394 16.3069 10.0914 16.8105 10.8451C17.3141 11.5988 17.5829 12.485 17.5829 13.3915C17.5829 14.6071 17.1001 15.7728 16.2405 16.6324C15.381 17.4919 14.2152 17.9748 12.9996 17.9748V17.9748Z" fill="#292929"/>
</svg>
