<svg width="26" height="23" viewBox="0 0 26 23" fill="none" xmlns="http://www.w3.org/2000/svg">
<path d="M0 11.5C0 10.2786 0.99014 9.28846 2.21154 9.28846H17.2885C18.5099 9.28846 19.5 10.2786 19.5 11.5C19.5 12.7214 18.5099 13.7115 17.2885 13.7115H2.21154C0.990138 13.7115 0 12.7214 0 11.5ZM0 2.21154C0 0.990139 0.99014 0 2.21154 0H23.7885C25.0099 0 26 0.990139 26 2.21154C26 3.43294 25.0099 4.42308 23.7885 4.42308H2.21154C0.99014 4.42308 0 3.43294 0 2.21154ZM0 20.7885C0 22.0099 0.99014 23 2.21154 23H9.54533C10.7667 23 11.7569 22.0099 11.7569 20.7885C11.7569 19.5671 10.7667 18.5769 9.54533 18.5769H2.21154C0.990141 18.5769 0 19.5671 0 20.7885Z" fill="#292929"/>
</svg>
