<svg width="275" height="158" viewBox="0 0 275 158" fill="none" xmlns="http://www.w3.org/2000/svg">
<rect width="275" height="158" rx="10" fill="#531680"/>
<path d="M54.9148 23.8182H56.1477V30.5597C56.1477 31.2557 55.9837 31.8771 55.6555 32.424C55.3307 32.9676 54.8717 33.3968 54.2784 33.7116C53.6851 34.0232 52.9891 34.179 52.1903 34.179C51.3916 34.179 50.6955 34.0232 50.1023 33.7116C49.509 33.3968 49.0483 32.9676 48.7202 32.424C48.3954 31.8771 48.233 31.2557 48.233 30.5597V23.8182H49.4659V30.4602C49.4659 30.9574 49.5753 31.3999 49.794 31.7876C50.0128 32.1721 50.3243 32.4754 50.7287 32.6974C51.1364 32.9162 51.6236 33.0256 52.1903 33.0256C52.7571 33.0256 53.2443 32.9162 53.652 32.6974C54.0597 32.4754 54.3712 32.1721 54.5866 31.7876C54.8054 31.3999 54.9148 30.9574 54.9148 30.4602V23.8182ZM64.1781 26.3636C64.1184 25.8598 63.8765 25.4688 63.4522 25.1903C63.028 24.9119 62.5076 24.7727 61.8912 24.7727C61.4404 24.7727 61.046 24.8456 60.7079 24.9915C60.3732 25.1373 60.1113 25.3378 59.9224 25.593C59.7368 25.8482 59.644 26.1383 59.644 26.4631C59.644 26.7348 59.7086 26.9685 59.8379 27.1641C59.9705 27.3563 60.1395 27.517 60.345 27.6463C60.5505 27.7723 60.7659 27.8767 60.9913 27.9595C61.2167 28.0391 61.4238 28.1037 61.6127 28.1534L62.6468 28.4318C62.912 28.5014 63.207 28.5975 63.5318 28.7202C63.8599 28.8428 64.1731 29.0102 64.4714 29.2223C64.773 29.4311 65.0216 29.6996 65.2172 30.0277C65.4127 30.3558 65.5105 30.7585 65.5105 31.2358C65.5105 31.786 65.3663 32.2831 65.0779 32.7273C64.7929 33.1714 64.3753 33.5244 63.8251 33.7862C63.2782 34.0481 62.6137 34.179 61.8315 34.179C61.1023 34.179 60.4709 34.0613 59.9373 33.826C59.407 33.5907 58.9894 33.2625 58.6845 32.8416C58.3829 32.4207 58.2122 31.9318 58.1724 31.375H59.4451C59.4783 31.7595 59.6075 32.0777 59.8329 32.3295C60.0616 32.5781 60.35 32.7637 60.698 32.8864C61.0493 33.0057 61.4271 33.0653 61.8315 33.0653C62.3021 33.0653 62.7247 32.9891 63.0993 32.8366C63.4738 32.6809 63.7704 32.4654 63.9892 32.1903C64.2079 31.9119 64.3173 31.5871 64.3173 31.2159C64.3173 30.8778 64.2228 30.6027 64.0339 30.3906C63.845 30.1785 63.5964 30.0062 63.2882 29.8736C62.9799 29.741 62.6468 29.625 62.2889 29.5256L61.036 29.1676C60.2406 28.9389 59.6109 28.6125 59.1468 28.1882C58.6828 27.764 58.4508 27.2088 58.4508 26.5227C58.4508 25.9527 58.6049 25.4555 58.9132 25.0312C59.2247 24.6037 59.6423 24.2723 60.166 24.0369C60.693 23.7983 61.2813 23.679 61.9309 23.679C62.5872 23.679 63.1705 23.7966 63.6809 24.032C64.1913 24.264 64.5957 24.5821 64.894 24.9865C65.1956 25.3909 65.3547 25.8499 65.3713 26.3636H64.1781ZM70.6797 34H67.5376V23.8182H70.8189C71.8066 23.8182 72.6518 24.022 73.3544 24.4297C74.0571 24.834 74.5956 25.4157 74.9702 26.1747C75.3447 26.9304 75.532 27.8352 75.532 28.8892C75.532 29.9498 75.343 30.8629 74.9652 31.6286C74.5874 32.3909 74.0372 32.9775 73.3146 33.3885C72.5921 33.7962 71.7138 34 70.6797 34ZM68.7706 32.9062H70.6001C71.442 32.9062 72.1397 32.7438 72.6932 32.419C73.2467 32.0942 73.6593 31.6319 73.9311 31.032C74.2029 30.4321 74.3388 29.7178 74.3388 28.8892C74.3388 28.0672 74.2045 27.3596 73.9361 26.7663C73.6676 26.1697 73.2666 25.7124 72.733 25.3942C72.1993 25.0727 71.5348 24.9119 70.7393 24.9119H68.7706V32.9062ZM76.6195 24.9119V23.8182H84.2559V24.9119H81.0542V34H79.8212V24.9119H76.6195Z" fill="white"/>
<path d="M51.0568 65.2727V52.5455H51.8722V65.2727H51.0568ZM53.8011 56.3636C53.7415 55.8598 53.4995 55.4688 53.0753 55.1903C52.651 54.9119 52.1307 54.7727 51.5142 54.7727C51.0634 54.7727 50.669 54.8456 50.331 54.9915C49.9962 55.1373 49.7344 55.3378 49.5455 55.593C49.3598 55.8482 49.267 56.1383 49.267 56.4631C49.267 56.7348 49.3317 56.9685 49.4609 57.1641C49.5935 57.3563 49.7625 57.517 49.968 57.6463C50.1735 57.7723 50.389 57.8767 50.6143 57.9595C50.8397 58.0391 51.0469 58.1037 51.2358 58.1534L52.2699 58.4318C52.535 58.5014 52.83 58.5975 53.1548 58.7202C53.483 58.8428 53.7962 59.0102 54.0945 59.2223C54.3961 59.4311 54.6446 59.6996 54.8402 60.0277C55.0357 60.3558 55.1335 60.7585 55.1335 61.2358C55.1335 61.786 54.9893 62.2831 54.701 62.7273C54.416 63.1714 53.9983 63.5244 53.4482 63.7862C52.9013 64.0481 52.2367 64.179 51.4545 64.179C50.7254 64.179 50.094 64.0613 49.5604 63.826C49.0301 63.5907 48.6125 63.2625 48.3075 62.8416C48.0059 62.4207 47.8352 61.9318 47.7955 61.375H49.0682C49.1013 61.7595 49.2306 62.0777 49.456 62.3295C49.6847 62.5781 49.973 62.7637 50.321 62.8864C50.6723 63.0057 51.0502 63.0653 51.4545 63.0653C51.9252 63.0653 52.3478 62.9891 52.7223 62.8366C53.0968 62.6809 53.3935 62.4654 53.6122 62.1903C53.831 61.9119 53.9403 61.5871 53.9403 61.2159C53.9403 60.8778 53.8459 60.6027 53.657 60.3906C53.468 60.1785 53.2195 60.0062 52.9112 59.8736C52.603 59.741 52.2699 59.625 51.9119 59.5256L50.6591 59.1676C49.8636 58.9389 49.2339 58.6125 48.7699 58.1882C48.3059 57.764 48.0739 57.2088 48.0739 56.5227C48.0739 55.9527 48.228 55.4555 48.5362 55.0312C48.8478 54.6037 49.2654 54.2723 49.7891 54.0369C50.3161 53.7983 50.9044 53.679 51.554 53.679C52.2102 53.679 52.7936 53.7966 53.304 54.032C53.8144 54.264 54.2188 54.5821 54.517 54.9865C54.8187 55.3909 54.9777 55.8499 54.9943 56.3636H53.8011ZM56.9817 64V63.1051L60.3425 59.4261C60.7369 58.9953 61.0617 58.6207 61.3169 58.3026C61.5721 57.9811 61.7611 57.6795 61.8837 57.3977C62.0096 57.1127 62.0726 56.8144 62.0726 56.5028C62.0726 56.1449 61.9864 55.835 61.8141 55.5732C61.6451 55.3113 61.4131 55.1091 61.1181 54.9666C60.8231 54.8241 60.4917 54.7528 60.1238 54.7528C59.7327 54.7528 59.3913 54.834 59.0996 54.9964C58.8113 55.1555 58.5875 55.3793 58.4284 55.6676C58.2727 55.956 58.1948 56.294 58.1948 56.6818H57.0215C57.0215 56.0852 57.159 55.5616 57.4341 55.1108C57.7092 54.66 58.0837 54.3087 58.5577 54.0568C59.035 53.8049 59.5703 53.679 60.1635 53.679C60.7601 53.679 61.2888 53.8049 61.7495 54.0568C62.2102 54.3087 62.5714 54.6484 62.8333 55.076C63.0951 55.5036 63.226 55.9792 63.226 56.5028C63.226 56.8774 63.1581 57.2436 63.0222 57.6016C62.8896 57.9562 62.6576 58.3523 62.3262 58.7898C61.998 59.224 61.5423 59.7543 60.959 60.3807L58.6721 62.8267V62.9062H63.405V64H56.9817ZM67.2282 62.608L67.1486 63.1449C67.0923 63.5227 67.0061 63.9271 66.8901 64.358C66.7774 64.7888 66.6597 65.1948 66.5371 65.576C66.4145 65.9571 66.3134 66.2604 66.2338 66.4858H65.339C65.382 66.2737 65.4384 65.9936 65.508 65.6456C65.5776 65.2976 65.6472 64.9081 65.7168 64.4773C65.7897 64.0497 65.8494 63.6122 65.8958 63.1648L65.9554 62.608H67.2282ZM69.3821 64V63.1051L72.7429 59.4261C73.1373 58.9953 73.4621 58.6207 73.7173 58.3026C73.9725 57.9811 74.1615 57.6795 74.2841 57.3977C74.41 57.1127 74.473 56.8144 74.473 56.5028C74.473 56.1449 74.3868 55.835 74.2145 55.5732C74.0455 55.3113 73.8134 55.1091 73.5185 54.9666C73.2235 54.8241 72.892 54.7528 72.5241 54.7528C72.133 54.7528 71.7917 54.834 71.5 54.9964C71.2116 55.1555 70.9879 55.3793 70.8288 55.6676C70.6731 55.956 70.5952 56.294 70.5952 56.6818H69.4219C69.4219 56.0852 69.5594 55.5616 69.8345 55.1108C70.1096 54.66 70.4841 54.3087 70.9581 54.0568C71.4354 53.8049 71.9706 53.679 72.5639 53.679C73.1605 53.679 73.6892 53.8049 74.1499 54.0568C74.6106 54.3087 74.9718 54.6484 75.2337 55.076C75.4955 55.5036 75.6264 55.9792 75.6264 56.5028C75.6264 56.8774 75.5585 57.2436 75.4226 57.6016C75.29 57.9562 75.058 58.3523 74.7266 58.7898C74.3984 59.224 73.9427 59.7543 73.3594 60.3807L71.0724 62.8267V62.9062H75.8054V64H69.3821ZM81.0405 64.1392C80.4571 64.1392 79.9318 64.0232 79.4645 63.7912C78.9972 63.5592 78.6226 63.241 78.3409 62.8366C78.0592 62.4323 77.9051 61.9716 77.8786 61.4545H79.0717C79.1181 61.9152 79.3269 62.2964 79.6982 62.598C80.0727 62.8963 80.5201 63.0455 81.0405 63.0455C81.4581 63.0455 81.8293 62.9477 82.1541 62.7521C82.4822 62.5566 82.7391 62.2881 82.9247 61.9467C83.1136 61.602 83.2081 61.2126 83.2081 60.7784C83.2081 60.3343 83.1103 59.9382 82.9148 59.5902C82.7225 59.2389 82.4574 58.9621 82.1193 58.7599C81.7813 58.5578 81.3951 58.455 80.9609 58.4517C80.6494 58.4484 80.3295 58.4964 80.0014 58.5959C79.6733 58.692 79.4032 58.8163 79.1911 58.9688L78.0376 58.8295L78.6541 53.8182H83.9439V54.9119H79.6882L79.3303 57.9148H79.3899C79.5987 57.7491 79.8606 57.6115 80.1754 57.5021C80.4903 57.3928 80.8184 57.3381 81.1598 57.3381C81.7829 57.3381 82.3381 57.4872 82.8253 57.7855C83.3158 58.0805 83.7003 58.4848 83.9787 58.9986C84.2604 59.5123 84.4013 60.099 84.4013 60.7585C84.4013 61.4081 84.2554 61.9882 83.9638 62.4986C83.6754 63.0057 83.2777 63.4067 82.7706 63.7017C82.2635 63.9934 81.6868 64.1392 81.0405 64.1392ZM86.6944 64L91.2484 54.9915V54.9119H85.9984V53.8182H92.5211V54.9716L87.987 64H86.6944ZM93.4993 64.0795C93.254 64.0795 93.0436 63.9917 92.8679 63.8161C92.6922 63.6404 92.6044 63.4299 92.6044 63.1847C92.6044 62.9394 92.6922 62.7289 92.8679 62.5533C93.0436 62.3776 93.254 62.2898 93.4993 62.2898C93.7446 62.2898 93.955 62.3776 94.1307 62.5533C94.3063 62.7289 94.3942 62.9394 94.3942 63.1847C94.3942 63.3471 94.3527 63.4962 94.2699 63.6321C94.1903 63.768 94.0826 63.8774 93.9467 63.9602C93.8142 64.0398 93.665 64.0795 93.4993 64.0795ZM99.4565 64.1392C98.8732 64.1392 98.3478 64.0232 97.8805 63.7912C97.4132 63.5592 97.0386 63.241 96.7569 62.8366C96.4752 62.4323 96.3211 61.9716 96.2946 61.4545H97.4877C97.5342 61.9152 97.743 62.2964 98.1142 62.598C98.4887 62.8963 98.9361 63.0455 99.4565 63.0455C99.8741 63.0455 100.245 62.9477 100.57 62.7521C100.898 62.5566 101.155 62.2881 101.341 61.9467C101.53 61.602 101.624 61.2126 101.624 60.7784C101.624 60.3343 101.526 59.9382 101.331 59.5902C101.139 59.2389 100.873 58.9621 100.535 58.7599C100.197 58.5578 99.8111 58.455 99.377 58.4517C99.0654 58.4484 98.7456 58.4964 98.4174 58.5959C98.0893 58.692 97.8192 58.8163 97.6071 58.9688L96.4537 58.8295L97.0701 53.8182H102.36V54.9119H98.1042L97.7463 57.9148H97.8059C98.0147 57.7491 98.2766 57.6115 98.5914 57.5021C98.9063 57.3928 99.2344 57.3381 99.5758 57.3381C100.199 57.3381 100.754 57.4872 101.241 57.7855C101.732 58.0805 102.116 58.4848 102.395 58.9986C102.676 59.5123 102.817 60.099 102.817 60.7585C102.817 61.4081 102.671 61.9882 102.38 62.4986C102.091 63.0057 101.694 63.4067 101.187 63.7017C100.68 63.9934 100.103 64.1392 99.4565 64.1392ZM105.11 64L109.664 54.9915V54.9119H104.414V53.8182H110.937V54.9716L106.403 64H105.11Z" fill="white"/>
</svg>
