<svg width="30" height="31" viewBox="0 0 30 31" fill="none" xmlns="http://www.w3.org/2000/svg">
<path d="M10.0898 13.6829C9.23437 13.513 8.4375 14.2044 8.4375 15.0775V18.0306C8.4375 18.6283 8.85352 19.1087 9.41602 19.3197C10.4824 19.7181 11.25 20.7493 11.25 21.9564C11.25 23.5091 9.99023 24.7689 8.4375 24.7689C6.88477 24.7689 5.625 23.5091 5.625 21.9564V7.42513C5.625 6.64583 4.99805 6.01888 4.21875 6.01888H1.40625C0.626953 6.01888 0 6.64583 0 7.42513V21.9564C0 27.2005 4.81055 31.3431 10.2539 30.2005C13.4414 29.5325 16.0137 26.9544 16.6816 23.7728C17.7012 18.9154 14.5137 14.5618 10.0898 13.6829ZM12.2461 0.393876C11.707 0.364579 11.25 0.792314 11.25 1.33138V3.18294C11.25 3.68099 11.6367 4.09114 12.1289 4.11458C19.7109 4.52474 25.8047 10.6771 26.2441 18.265C26.2734 18.7572 26.6836 19.1439 27.1758 19.1439H29.0566C29.5957 19.1439 30.0234 18.6868 29.9941 18.1478C29.4961 8.58528 21.8086 0.897782 12.2461 0.393876ZM12.2637 6.01888C11.7188 5.97786 11.25 6.41145 11.25 6.96224V8.84309C11.25 9.33528 11.6309 9.73958 12.1172 9.77474C16.6172 10.1439 20.2031 13.7708 20.6074 18.2825C20.6543 18.7689 21.0527 19.1439 21.5391 19.1439H23.4258C23.9707 19.1439 24.4102 18.6751 24.3691 18.1302C23.877 11.679 18.7148 6.51692 12.2637 6.01888V6.01888Z" fill="#292929"/>
</svg>
