<svg width="231" height="231" viewBox="0 0 231 231" fill="none" xmlns="http://www.w3.org/2000/svg">
<circle cx="115.5" cy="115.5" r="115.5" fill="white"/>
<path d="M115.5 0C130.668 1.80873e-07 145.687 2.98751 159.7 8.79195C173.713 14.5964 186.446 23.1041 197.171 33.8293C207.896 44.5545 216.404 57.2872 222.208 71.3003C228.013 85.3135 231 100.333 231 115.5C231 130.668 228.012 145.687 222.208 159.7C216.403 173.714 207.896 186.446 197.17 197.171C186.445 207.896 173.712 216.404 159.699 222.208C145.686 228.013 130.667 231 115.499 231L115.499 210.21C127.937 210.21 140.253 207.76 151.743 203.001C163.234 198.241 173.675 191.265 182.47 182.47C191.264 173.676 198.241 163.235 203 151.744C207.76 140.254 210.21 127.938 210.21 115.5C210.21 103.063 207.76 90.7471 203.001 79.2563C198.241 67.7655 191.265 57.3247 182.47 48.53C173.676 39.7354 163.235 32.759 151.744 27.9994C140.253 23.2398 127.938 20.79 115.5 20.79V0Z" fill="#2521CE"/>
<path d="M19.7462 180.087C8.17937 162.938 1.43004 142.998 0.2033 122.35C-1.02344 101.702 3.31744 81.1026 12.7724 62.7052C22.2274 44.3078 36.4495 28.7871 53.9528 17.7647C71.4561 6.74227 91.5983 0.62259 112.275 0.0450324L112.856 20.8269C95.9006 21.3005 79.384 26.3187 65.0313 35.3571C50.6786 44.3954 39.0164 57.1224 31.2634 72.2083C23.5103 87.2941 19.9508 104.185 20.9567 121.117C21.9626 138.049 27.4971 154.399 36.9818 168.461L19.7462 180.087Z" fill="#7C20BE"/>
<path d="M111.469 230.93C93.2531 230.294 75.4463 225.355 59.5045 216.519C43.5627 207.682 29.9386 195.198 19.7462 180.087L36.9819 168.461C45.3397 180.852 56.5114 191.089 69.5837 198.335C82.6559 205.581 97.2576 209.631 112.195 210.152L111.469 230.93Z" fill="#F411EB"/>
<circle cx="115.5" cy="115.5" r="70.4395" fill="#5F059F"/>
</svg>
